<svg width="162" height="28" viewBox="0 0 162 28" fill="none" xmlns="http://www.w3.org/2000/svg"><path fill-rule="evenodd" clip-rule="evenodd" d="M162 0l-9.633 9.978V28l9.632-10.049L162 0z" fill="#4BA8C4"/><path fill-rule="evenodd" clip-rule="evenodd" d="M142.399 0l-9.632 9.978h19.6L162 0h-19.601zm.646 1.615h15.19l-6.514 6.748h-15.189l6.513-6.748zM6.199 20.201v2.894h7.596c1.616 0 1.922-.792 1.922-1.447v-.068c0-.724-.328-1.38-1.922-1.38H6.2zm0-6.15v2.374h7.204c1.287 0 1.659-.543 1.659-1.176v-.044c0-.656-.372-1.153-1.66-1.153H6.2v-.001zM0 10.23h15.28c4.737 0 6.003 1.9 6.003 3.822v.248c0 2.103-1.725 3.052-2.794 3.301 1.44.361 3.732 1.356 3.732 4.319v.27c0 2.646-1.55 4.862-6.854 4.862H0V10.231zm29.728 6.986h7.116c1.375 0 1.877-.633 1.877-1.448v-.022c0-.792-.48-1.424-1.877-1.424h-7.116v2.893zm0 9.835h-6.2V10.23h14.756c4.737 0 6.833 1.583 6.833 4.32v.247c0 2.442-2.052 3.46-3.275 3.753 2.008.475 3.34 1.832 3.34 4.003v2.487c0 1.175.153 1.605.306 1.899v.113h-6.33c-.152-.18-.196-.407-.196-.882v-1.967c0-1.922-.852-2.917-3.297-2.917h-5.937v5.766zm17.155 0h6.177V10.228h-6.177V27.05zM62.097 10.23l9.43 9.564V10.23h6.155v16.822h-6.2L61.31 16.856v10.196h-6.154V10.23h6.94zm28.09 17.139c-8.884 0-10.958-4.93-10.958-8.48v-.632c0-3.618 1.921-8.343 11.504-8.343h.85c9.955 0 11.308 4.138 11.396 6.489v.022h-6.461c-.11-.43-.678-2.125-5.261-2.125-4.367 0-5.61 1.945-5.61 4.16v.249c0 2.147 1.55 4.25 5.566 4.25 4.19 0 5.544-1.56 5.544-2.103H91.06V17.58h12.027v9.473h-3.906c-.11-.543-.46-1.718-.766-2.33-.632.724-2.661 2.647-7.726 2.647h-.502zm32.588-8.954c0-1.787-1.113-3.98-5.916-3.98-4.89 0-5.915 2.193-5.915 3.98v.272c0 1.763 1.113 4.137 5.915 4.137 4.803 0 5.916-2.284 5.916-4.093v-.317zm-5.413-8.502c10.476 0 11.83 5.178 11.83 8.344v.677c0 3.143-1.332 8.435-11.83 8.435h-.983c-10.522 0-11.853-5.29-11.853-8.434v-.678c0-3.166 1.332-8.344 11.853-8.344h.983z" fill="#4BA8C4"/></svg>